inDegrees=yes
name=ik_S55_A05_T02
DataType=double
version=3
OpenSimVersion=4.3-2021-08-27-4bc7ad9
endheader
time	pelvis_tilt	pelvis_list	pelvis_rotation	pelvis_tx	pelvis_ty	pelvis_tz	hip_flexion_r	hip_adduction_r	hip_rotation_r	knee_angle_r	knee_angle_r_beta	ankle_angle_r	subtalar_angle_r	mtp_angle_r	hip_flexion_l	hip_adduction_l	hip_rotation_l	knee_angle_l	knee_angle_l_beta	ankle_angle_l	subtalar_angle_l	mtp_angle_l	lumbar_extension	lumbar_bending	lumbar_rotation	arm_flex_r	arm_add_r	arm_rot_r	elbow_flex_r	pro_sup_r	wrist_flex_r	wrist_dev_r	arm_flex_l	arm_add_l	arm_rot_l	elbow_flex_l	pro_sup_l	wrist_flex_l	wrist_dev_l
22.31999999999961	-2.548616331925586	-0.6854348314898204	24.29729133178366	0	0.9399999999999999	0	34.46341903760491	-9.880194650109949	-9.356852164256098	40.15527825488244	0.7008418176021813	0	0	0	34.46341903760491	-9.880194650109949	-9.356852164256098	40.15527825488244	0.7008418176021813	0	0	0	-1.785858184031388	-0.6460615237741016	3.153142561227348	51.34070044278803	-15.27541758642518	2.571824624380891	60.64197960058774	103.7370618899615	0	1.247859448102845e-35	20.22746513942051	-13.32100992763646	-2.932564262904063	59.09720542328716	140.6995960015688	0	1.247859448102845e-35
22.33999999999961	-2.561759178512494	-0.6752717113333755	24.32483718290266	0	0.9399999999999999	0	34.46704214823313	-9.88033512330915	-9.357336684629995	40.1588259369913	0.7009037363357951	0	0	0	34.46704214823313	-9.88033512330915	-9.357336684629995	40.1588259369913	0.7009037363357951	0	0	0	-1.794363552923259	-0.6290027016836057	3.090990990950534	51.37724856484987	-15.25709710949943	3.147197771470776	60.5357689093345	103.6334563051116	0	0	20.24884321489352	-13.2925767097208	-2.868551325045548	59.07246430775886	140.7088817408031	0	0
22.35999999999961	-2.565111036935196	-0.6770718119716712	24.3298374106515	0	0.9399999999999999	0	34.47013040019745	-9.880454334971063	-9.357748540752819	40.16186059514899	0.7009567011123193	0	0	0	34.47013040019745	-9.880454334971063	-9.357748540752819	40.16186059514899	0.7009567011123193	0	0	0	-1.798571173140252	-0.6282109611953455	3.067379967753971	51.33820873082463	-15.25211589195744	3.348845599126157	60.53475746678045	103.4495977946748	0	0	20.25989050745019	-13.3177449466368	-2.840962901397661	59.07207153666943	140.6831917846713	0	0
22.37999999999961	-2.564139417164345	-0.6764569427570951	24.33002896375367	0	0.9399999999999999	0	34.48630010481906	-9.881138770535498	-9.360017111888205	40.17744400604792	0.7012286829411968	0	0	0	34.48630010481906	-9.881138770535498	-9.360017111888205	40.17744400604792	0.7012286829411968	0	0	0	-1.798309476253727	-0.6268690860018685	3.06197675005155	51.29361798763671	-15.27426480160869	3.454224438376712	60.54953327689181	103.3748694168117	0	0	20.27451315276045	-13.34548571892005	-2.791203341156719	59.07894929780716	140.6495422458237	0	0
22.39999999999961	-2.562918260088876	-0.6794632394304472	24.33172523359287	0	0.9399999999999999	0	34.51220780596493	-9.881952003616762	-9.363113406192467	40.20350317048896	0.7016835011610115	0	0	0	34.51220780596493	-9.881952003616762	-9.363113406192467	40.20350317048896	0.7016835011610115	0	0	0	-1.799839782045512	-0.628396734473305	3.060174081800426	51.2714132741968	-15.32649040236834	3.482552436249316	60.58242659800609	103.2592822194411	0	0	20.28214056288273	-13.3672379011571	-2.795174952320363	59.08442238866453	140.6028619179517	0	0
22.41999999999961	-2.558774216572212	-0.6761929571667037	24.31921388026975	0	0.9399999999999999	0	34.54096852542717	-9.882674298686689	-9.366187260630808	40.23319951841776	0.7022018002081869	0	0	0	34.54096852542717	-9.882674298686689	-9.366187260630808	40.23319951841776	0.7022018002081869	0	0	0	-1.795858060617551	-0.6266581968974341	3.09943659891713	51.24342249135997	-15.46978852460018	3.419752940669323	60.64672423678825	102.9135125546072	0	0	20.27362543790973	-13.36623817741636	-2.790546585622151	59.08938839703869	140.6321468548156	0	0
22.43999999999961	-2.569557018214982	-0.6735885070673532	24.27500432681392	0	0.9399999999999999	0	34.54168484741407	-9.88270086474024	-9.366280486358665	40.23392209744108	0.7022144115912496	0	0	0	34.54168484741407	-9.88270086474024	-9.366280486358665	40.23392209744108	0.7022144115912496	0	0	0	-1.80456466422645	-0.6201186277871631	3.108361189588016	51.2364149321493	-15.54794075378388	3.286321371454942	60.66981859133598	102.8754003924909	0	0	20.27851211153297	-13.35595213891734	-2.892696960875037	59.08644583139543	140.6248137279338	0	0
22.45999999999961	-2.563897228019233	-0.6837789068424673	24.26833125299835	0	0.9399999999999999	0	34.54515550450054	-9.882832905511208	-9.3667397291344	40.23734357706365	0.7022741276759533	0	0	0	34.54515550450054	-9.882832905511208	-9.3667397291344	40.23734357706365	0.7022741276759533	0	0	0	-1.803006684067553	-0.6341578769444882	3.180340107681747	51.10034097607733	-15.75404018008126	3.076771458220296	60.97964988347384	102.6251557896997	0	0	20.2876575231093	-13.33597174439529	-2.846544891462322	59.08930065668282	140.6707181151008	0	0
22.47999999999961	-2.574734727358736	-0.6836240915946736	24.27730208371423	0	0.9399999999999999	0	34.54862118154762	-9.882964764613849	-9.367198370115899	40.2407585321556	0.7023337298861158	0	0	0	34.54862118154762	-9.882964764613849	-9.367198370115899	40.2407585321556	0.7023337298861158	0	0	0	-1.812703319074827	-0.6303324500402143	3.207716542050639	51.00126572953197	-15.93225181183151	3.062291832692469	61.17124614450232	102.5173550472643	0	0	20.31957058245636	-13.27502310350242	-2.860136669823055	59.08730104671054	140.6846974471445	0	0
